<svg id="visual" viewBox="0 0 900 600" width="900" height="600" xmlns="http://www.w3.org/2000/svg" xmlns:xlink="http://www.w3.org/1999/xlink" version="1.1"><g transform="translate(428.4724697054795 243.30931379430658)"><path d="M46.8 -84.6C68.6 -68.5 99.7 -72 136.4 -61.2C173.2 -50.3 215.6 -25.2 218.6 1.7C221.7 28.7 185.3 57.3 167.3 100.6C149.3 143.9 149.7 201.9 124.8 234.5C100 267.2 50 274.6 13.4 251.4C-23.2 228.1 -46.3 174.3 -74.3 143.4C-102.3 112.6 -135.2 104.8 -153.9 84.7C-172.7 64.7 -177.3 32.3 -175.3 1.2C-173.3 -30 -164.6 -60 -146.9 -81.9C-129.3 -103.9 -102.6 -117.8 -76.6 -131.4C-50.7 -145.1 -25.3 -158.5 -6.4 -147.4C12.5 -136.3 25 -100.6 46.8 -84.6" fill="#25b940"></path></g></svg>