<svg id="visual" viewBox="0 0 900 600" width="900" height="600" xmlns="http://www.w3.org/2000/svg" xmlns:xlink="http://www.w3.org/1999/xlink" version="1.1"><g transform="translate(462.7959623969853 296.4833602051013)"><path d="M118.1 -201.6C136.9 -193.7 124.7 -129.4 136.4 -86.3C148.1 -43.3 183.5 -21.7 206 13C228.6 47.7 238.1 95.3 215.5 119.3C192.8 143.3 137.9 143.5 96.6 140.5C55.3 137.5 27.7 131.3 -11.2 150.6C-50 169.9 -100 214.9 -126.8 209.5C-153.7 204.2 -157.4 148.6 -181.4 105.3C-205.4 62 -249.7 31 -253.7 -2.3C-257.8 -35.7 -221.6 -71.3 -196.6 -112.9C-171.6 -154.5 -157.8 -201.9 -126.9 -202.9C-96 -203.8 -48 -158.1 0.8 -159.6C49.7 -161 99.3 -209.6 118.1 -201.6" fill="#25b940"></path></g></svg>