<svg id="visual" viewBox="0 0 900 600" width="900" height="600" xmlns="http://www.w3.org/2000/svg" xmlns:xlink="http://www.w3.org/1999/xlink" version="1.1"><g transform="translate(472.44491630752515 317.77271983321907)"><path d="M135 -236.2C173.7 -211.5 202.9 -172.8 216.3 -131C229.7 -89.3 227.4 -44.7 227.2 -0.1C227.1 44.5 229.2 89 213.3 126.5C197.5 164.1 163.7 194.6 125.2 213.9C86.7 233.1 43.3 241.1 2.8 236.3C-37.8 231.5 -75.7 214.1 -116.9 196.4C-158.2 178.7 -203 160.9 -232.9 128.1C-262.8 95.3 -277.9 47.7 -270.5 4.3C-263.2 -39.2 -233.3 -78.3 -209.5 -121.6C-185.7 -164.9 -167.8 -212.4 -133.9 -239.8C-100 -267.2 -50 -274.6 -0.9 -273C48.2 -271.4 96.3 -260.9 135 -236.2" fill="#25b940"></path></g></svg>